<?xml version="1.0" encoding="UTF-8" standalone="no"?>
<!DOCTYPE svg PUBLIC "-//W3C//DTD SVG 1.1//EN"
 "http://www.w3.org/Graphics/SVG/1.1/DTD/svg11.dtd">
<!-- Generated by graphviz version 2.49.0 (20210828.1703)
 -->
<!-- Pages: 1 -->
<svg width="439pt" height="263pt"
 viewBox="0.00 0.00 439.50 263.00" xmlns="http://www.w3.org/2000/svg" xmlns:xlink="http://www.w3.org/1999/xlink">
<g id="graph0" class="graph" transform="scale(1 1) rotate(0) translate(4 259)">
<polygon fill="white" stroke="transparent" points="-4,4 -4,-259 435.5,-259 435.5,4 -4,4"/>
<!-- 1 -->
<g id="node1" class="node">
<title>1</title>
<ellipse fill="none" stroke="black" cx="212" cy="-237" rx="18" ry="18"/>
<text text-anchor="middle" x="212" y="-233.3" font-family="Times New Roman,serif" font-size="14.00">1</text>
</g>
<!-- 2 -->
<g id="node2" class="node">
<title>2</title>
<ellipse fill="none" stroke="black" cx="155" cy="-165" rx="18" ry="18"/>
<text text-anchor="middle" x="155" y="-161.3" font-family="Times New Roman,serif" font-size="14.00">2</text>
</g>
<!-- 1&#45;&gt;2 -->
<g id="edge1" class="edge">
<title>1&#45;&gt;2</title>
<path fill="none" stroke="black" d="M201.01,-222.5C192.89,-212.53 181.67,-198.75 172.34,-187.29"/>
<polygon fill="black" stroke="black" points="174.98,-185 165.96,-179.45 169.56,-189.42 174.98,-185"/>
</g>
<!-- 3 -->
<g id="node3" class="node">
<title>3</title>
<ellipse fill="none" stroke="black" cx="269" cy="-165" rx="18" ry="18"/>
<text text-anchor="middle" x="269" y="-161.3" font-family="Times New Roman,serif" font-size="14.00">3</text>
</g>
<!-- 1&#45;&gt;3 -->
<g id="edge2" class="edge">
<title>1&#45;&gt;3</title>
<path fill="none" stroke="black" d="M222.99,-222.5C231.11,-212.53 242.33,-198.75 251.66,-187.29"/>
<polygon fill="black" stroke="black" points="254.44,-189.42 258.04,-179.45 249.02,-185 254.44,-189.42"/>
</g>
<!-- 4 -->
<g id="node4" class="node">
<title>4</title>
<ellipse fill="none" stroke="black" cx="72" cy="-93" rx="18" ry="18"/>
<text text-anchor="middle" x="72" y="-89.3" font-family="Times New Roman,serif" font-size="14.00">4</text>
</g>
<!-- 2&#45;&gt;4 -->
<g id="edge3" class="edge">
<title>2&#45;&gt;4</title>
<path fill="none" stroke="black" d="M141.66,-152.75C128.6,-141.73 108.47,-124.76 93.21,-111.88"/>
<polygon fill="black" stroke="black" points="95.2,-108.99 85.3,-105.22 90.69,-114.34 95.2,-108.99"/>
</g>
<!-- 5 -->
<g id="node5" class="node">
<title>5</title>
<ellipse fill="none" stroke="black" cx="155" cy="-93" rx="18" ry="18"/>
<text text-anchor="middle" x="155" y="-89.3" font-family="Times New Roman,serif" font-size="14.00">5</text>
</g>
<!-- 2&#45;&gt;5 -->
<g id="edge4" class="edge">
<title>2&#45;&gt;5</title>
<path fill="none" stroke="black" d="M155,-146.69C155,-138.98 155,-129.71 155,-121.11"/>
<polygon fill="black" stroke="black" points="158.5,-121.1 155,-111.1 151.5,-121.1 158.5,-121.1"/>
</g>
<!-- 6 -->
<g id="node6" class="node">
<title>6</title>
<ellipse fill="none" stroke="black" cx="269" cy="-93" rx="18" ry="18"/>
<text text-anchor="middle" x="269" y="-89.3" font-family="Times New Roman,serif" font-size="14.00">6</text>
</g>
<!-- 3&#45;&gt;6 -->
<g id="edge5" class="edge">
<title>3&#45;&gt;6</title>
<path fill="none" stroke="black" d="M269,-146.69C269,-138.98 269,-129.71 269,-121.11"/>
<polygon fill="black" stroke="black" points="272.5,-121.1 269,-111.1 265.5,-121.1 272.5,-121.1"/>
</g>
<!-- 7 -->
<g id="node7" class="node">
<title>7</title>
<ellipse fill="none" stroke="black" cx="355" cy="-93" rx="18" ry="18"/>
<text text-anchor="middle" x="355" y="-89.3" font-family="Times New Roman,serif" font-size="14.00">7</text>
</g>
<!-- 3&#45;&gt;7 -->
<g id="edge6" class="edge">
<title>3&#45;&gt;7</title>
<path fill="none" stroke="black" d="M282.82,-152.75C296.44,-141.66 317.46,-124.56 333.31,-111.65"/>
<polygon fill="black" stroke="black" points="335.95,-114.01 341.5,-104.98 331.54,-108.58 335.95,-114.01"/>
</g>
<!-- 8 -->
<g id="node8" class="node">
<title>8</title>
<ellipse fill="none" stroke="black" cx="18" cy="-19.5" rx="18" ry="18"/>
<text text-anchor="middle" x="18" y="-15.8" font-family="Times New Roman,serif" font-size="14.00">8</text>
</g>
<!-- 4&#45;&gt;8 -->
<g id="edge7" class="edge">
<title>4&#45;&gt;8</title>
<path fill="none" stroke="black" d="M61.59,-78.21C53.89,-68.02 43.26,-53.95 34.43,-42.25"/>
<polygon fill="black" stroke="black" points="37.2,-40.11 28.38,-34.24 31.61,-44.33 37.2,-40.11"/>
</g>
<!-- 9 -->
<g id="node9" class="node">
<title>9</title>
<ellipse fill="none" stroke="black" cx="72" cy="-19.5" rx="18" ry="18"/>
<text text-anchor="middle" x="72" y="-15.8" font-family="Times New Roman,serif" font-size="14.00">9</text>
</g>
<!-- 4&#45;&gt;9 -->
<g id="edge8" class="edge">
<title>4&#45;&gt;9</title>
<path fill="none" stroke="black" d="M72,-74.69C72,-66.61 72,-56.8 72,-47.76"/>
<polygon fill="black" stroke="black" points="75.5,-47.65 72,-37.65 68.5,-47.65 75.5,-47.65"/>
</g>
<!-- 10 -->
<g id="node10" class="node">
<title>10</title>
<ellipse fill="none" stroke="black" cx="127" cy="-19.5" rx="19.5" ry="19.5"/>
<text text-anchor="middle" x="127" y="-15.8" font-family="Times New Roman,serif" font-size="14.00">10</text>
</g>
<!-- 5&#45;&gt;10 -->
<g id="edge9" class="edge">
<title>5&#45;&gt;10</title>
<path fill="none" stroke="black" d="M148.65,-75.77C145.37,-67.39 141.28,-56.95 137.54,-47.41"/>
<polygon fill="black" stroke="black" points="140.72,-45.94 133.82,-37.91 134.21,-48.5 140.72,-45.94"/>
</g>
<!-- 11 -->
<g id="node11" class="node">
<title>11</title>
<ellipse fill="none" stroke="black" cx="184" cy="-19.5" rx="19.5" ry="19.5"/>
<text text-anchor="middle" x="184" y="-15.8" font-family="Times New Roman,serif" font-size="14.00">11</text>
</g>
<!-- 5&#45;&gt;11 -->
<g id="edge10" class="edge">
<title>5&#45;&gt;11</title>
<path fill="none" stroke="black" d="M161.44,-76.13C164.89,-67.61 169.24,-56.89 173.2,-47.14"/>
<polygon fill="black" stroke="black" points="176.46,-48.41 176.97,-37.82 169.97,-45.77 176.46,-48.41"/>
</g>
<!-- 12 -->
<g id="node12" class="node">
<title>12</title>
<ellipse fill="none" stroke="black" cx="241" cy="-19.5" rx="19.5" ry="19.5"/>
<text text-anchor="middle" x="241" y="-15.8" font-family="Times New Roman,serif" font-size="14.00">12</text>
</g>
<!-- 6&#45;&gt;12 -->
<g id="edge11" class="edge">
<title>6&#45;&gt;12</title>
<path fill="none" stroke="black" d="M262.65,-75.77C259.37,-67.39 255.28,-56.95 251.54,-47.41"/>
<polygon fill="black" stroke="black" points="254.72,-45.94 247.82,-37.91 248.21,-48.5 254.72,-45.94"/>
</g>
<!-- 13 -->
<g id="node13" class="node">
<title>13</title>
<ellipse fill="none" stroke="black" cx="298" cy="-19.5" rx="19.5" ry="19.5"/>
<text text-anchor="middle" x="298" y="-15.8" font-family="Times New Roman,serif" font-size="14.00">13</text>
</g>
<!-- 6&#45;&gt;13 -->
<g id="edge12" class="edge">
<title>6&#45;&gt;13</title>
<path fill="none" stroke="black" d="M275.44,-76.13C278.89,-67.61 283.24,-56.89 287.2,-47.14"/>
<polygon fill="black" stroke="black" points="290.46,-48.41 290.97,-37.82 283.97,-45.77 290.46,-48.41"/>
</g>
<!-- 14 -->
<g id="node14" class="node">
<title>14</title>
<ellipse fill="none" stroke="black" cx="355" cy="-19.5" rx="19.5" ry="19.5"/>
<text text-anchor="middle" x="355" y="-15.8" font-family="Times New Roman,serif" font-size="14.00">14</text>
</g>
<!-- 7&#45;&gt;14 -->
<g id="edge13" class="edge">
<title>7&#45;&gt;14</title>
<path fill="none" stroke="black" d="M355,-74.69C355,-67.05 355,-57.86 355,-49.24"/>
<polygon fill="black" stroke="black" points="358.5,-49.15 355,-39.15 351.5,-49.15 358.5,-49.15"/>
</g>
<!-- 15 -->
<g id="node15" class="node">
<title>15</title>
<ellipse fill="none" stroke="black" cx="412" cy="-19.5" rx="19.5" ry="19.5"/>
<text text-anchor="middle" x="412" y="-15.8" font-family="Times New Roman,serif" font-size="14.00">15</text>
</g>
<!-- 7&#45;&gt;15 -->
<g id="edge14" class="edge">
<title>7&#45;&gt;15</title>
<path fill="none" stroke="black" d="M365.99,-78.21C373.9,-68.28 384.76,-54.67 393.94,-43.16"/>
<polygon fill="black" stroke="black" points="396.76,-45.23 400.26,-35.23 391.29,-40.86 396.76,-45.23"/>
</g>
</g>
</svg>
