<?xml version="1.0" encoding="UTF-8" standalone="no"?>
<!DOCTYPE svg PUBLIC "-//W3C//DTD SVG 1.1//EN"
 "http://www.w3.org/Graphics/SVG/1.1/DTD/svg11.dtd">
<!-- Generated by graphviz version 2.49.0 (20210828.1703)
 -->
<!-- Title: bit&#45;example Pages: 1 -->
<svg width="620pt" height="377pt"
 viewBox="0.00 0.00 619.50 377.00" xmlns="http://www.w3.org/2000/svg" xmlns:xlink="http://www.w3.org/1999/xlink">
<g id="graph0" class="graph" transform="scale(1 1) rotate(0) translate(4 373)">
<title>bit&#45;example</title>
<polygon fill="white" stroke="transparent" points="-4,4 -4,-373 615.5,-373 615.5,4 -4,4"/>
<!-- 0 -->
<g id="node1" class="node">
<title>0</title>
<path fill="none" stroke="black" d="M133,-332.5C133,-332.5 172,-332.5 172,-332.5 178,-332.5 184,-338.5 184,-344.5 184,-344.5 184,-356.5 184,-356.5 184,-362.5 178,-368.5 172,-368.5 172,-368.5 133,-368.5 133,-368.5 127,-368.5 121,-362.5 121,-356.5 121,-356.5 121,-344.5 121,-344.5 121,-338.5 127,-332.5 133,-332.5"/>
<text text-anchor="middle" x="152.5" y="-346.8" font-family="Times New Roman,serif" font-size="14.00">0 (0000)</text>
</g>
<!-- 1 -->
<g id="node2" class="node">
<title>1</title>
<path fill="none" stroke="black" d="M12,-249.5C12,-249.5 51,-249.5 51,-249.5 57,-249.5 63,-255.5 63,-261.5 63,-261.5 63,-283.5 63,-283.5 63,-289.5 57,-295.5 51,-295.5 51,-295.5 12,-295.5 12,-295.5 6,-295.5 0,-289.5 0,-283.5 0,-283.5 0,-261.5 0,-261.5 0,-255.5 6,-249.5 12,-249.5"/>
<text text-anchor="middle" x="31.5" y="-280.3" font-family="Times New Roman,serif" font-size="14.00">1 (0001)</text>
<polyline fill="none" stroke="black" points="0,-272.5 63,-272.5 "/>
<text text-anchor="middle" x="31.5" y="-257.3" font-family="Times New Roman,serif" font-size="14.00">1, 1</text>
</g>
<!-- 0&#45;&gt;1 -->
<g id="edge1" class="edge">
<title>0&#45;&gt;1</title>
<path fill="none" stroke="black" d="M125.35,-332.44C109.68,-322.61 89.68,-310.04 72.17,-299.04"/>
<polygon fill="black" stroke="black" points="73.61,-295.81 63.28,-293.46 69.88,-301.74 73.61,-295.81"/>
</g>
<!-- 2 -->
<g id="node3" class="node">
<title>2</title>
<path fill="none" stroke="black" d="M93,-249.5C93,-249.5 132,-249.5 132,-249.5 138,-249.5 144,-255.5 144,-261.5 144,-261.5 144,-283.5 144,-283.5 144,-289.5 138,-295.5 132,-295.5 132,-295.5 93,-295.5 93,-295.5 87,-295.5 81,-289.5 81,-283.5 81,-283.5 81,-261.5 81,-261.5 81,-255.5 87,-249.5 93,-249.5"/>
<text text-anchor="middle" x="112.5" y="-280.3" font-family="Times New Roman,serif" font-size="14.00">2 (0010)</text>
<polyline fill="none" stroke="black" points="81,-272.5 144,-272.5 "/>
<text text-anchor="middle" x="112.5" y="-257.3" font-family="Times New Roman,serif" font-size="14.00">1, 2</text>
</g>
<!-- 0&#45;&gt;2 -->
<g id="edge2" class="edge">
<title>0&#45;&gt;2</title>
<path fill="none" stroke="black" d="M143.42,-332.25C139.14,-324.11 133.88,-314.13 128.93,-304.72"/>
<polygon fill="black" stroke="black" points="131.88,-302.81 124.13,-295.59 125.69,-306.07 131.88,-302.81"/>
</g>
<!-- 4 -->
<g id="node5" class="node">
<title>4</title>
<path fill="none" stroke="black" d="M174,-249.5C174,-249.5 213,-249.5 213,-249.5 219,-249.5 225,-255.5 225,-261.5 225,-261.5 225,-283.5 225,-283.5 225,-289.5 219,-295.5 213,-295.5 213,-295.5 174,-295.5 174,-295.5 168,-295.5 162,-289.5 162,-283.5 162,-283.5 162,-261.5 162,-261.5 162,-255.5 168,-249.5 174,-249.5"/>
<text text-anchor="middle" x="193.5" y="-280.3" font-family="Times New Roman,serif" font-size="14.00">4 (0100)</text>
<polyline fill="none" stroke="black" points="162,-272.5 225,-272.5 "/>
<text text-anchor="middle" x="193.5" y="-257.3" font-family="Times New Roman,serif" font-size="14.00">1, 4</text>
</g>
<!-- 0&#45;&gt;4 -->
<g id="edge4" class="edge">
<title>0&#45;&gt;4</title>
<path fill="none" stroke="black" d="M161.8,-332.25C166.24,-324.02 171.7,-313.92 176.82,-304.43"/>
<polygon fill="black" stroke="black" points="179.91,-306.05 181.58,-295.59 173.75,-302.73 179.91,-306.05"/>
</g>
<!-- 8 -->
<g id="node9" class="node">
<title>8</title>
<path fill="none" stroke="black" d="M338,-249.5C338,-249.5 377,-249.5 377,-249.5 383,-249.5 389,-255.5 389,-261.5 389,-261.5 389,-283.5 389,-283.5 389,-289.5 383,-295.5 377,-295.5 377,-295.5 338,-295.5 338,-295.5 332,-295.5 326,-289.5 326,-283.5 326,-283.5 326,-261.5 326,-261.5 326,-255.5 332,-249.5 338,-249.5"/>
<text text-anchor="middle" x="357.5" y="-280.3" font-family="Times New Roman,serif" font-size="14.00">8 (1000)</text>
<polyline fill="none" stroke="black" points="326,-272.5 389,-272.5 "/>
<text text-anchor="middle" x="357.5" y="-257.3" font-family="Times New Roman,serif" font-size="14.00">1, 8</text>
</g>
<!-- 0&#45;&gt;8 -->
<g id="edge8" class="edge">
<title>0&#45;&gt;8</title>
<path fill="none" stroke="black" d="M184.08,-337.79C219.6,-324.63 277.39,-303.2 316.39,-288.74"/>
<polygon fill="black" stroke="black" points="317.72,-291.98 325.88,-285.22 315.29,-285.42 317.72,-291.98"/>
</g>
<!-- 3 -->
<g id="node4" class="node">
<title>3</title>
<path fill="none" stroke="black" d="M53,-166.5C53,-166.5 92,-166.5 92,-166.5 98,-166.5 104,-172.5 104,-178.5 104,-178.5 104,-200.5 104,-200.5 104,-206.5 98,-212.5 92,-212.5 92,-212.5 53,-212.5 53,-212.5 47,-212.5 41,-206.5 41,-200.5 41,-200.5 41,-178.5 41,-178.5 41,-172.5 47,-166.5 53,-166.5"/>
<text text-anchor="middle" x="72.5" y="-197.3" font-family="Times New Roman,serif" font-size="14.00">3 (0011)</text>
<polyline fill="none" stroke="black" points="41,-189.5 104,-189.5 "/>
<text text-anchor="middle" x="72.5" y="-174.3" font-family="Times New Roman,serif" font-size="14.00">3, 3</text>
</g>
<!-- 2&#45;&gt;3 -->
<g id="edge3" class="edge">
<title>2&#45;&gt;3</title>
<path fill="none" stroke="black" d="M101.57,-249.37C97.38,-240.88 92.52,-231.04 87.98,-221.85"/>
<polygon fill="black" stroke="black" points="90.98,-220.02 83.42,-212.61 84.71,-223.12 90.98,-220.02"/>
</g>
<!-- 5 -->
<g id="node6" class="node">
<title>5</title>
<path fill="none" stroke="black" d="M134,-166.5C134,-166.5 173,-166.5 173,-166.5 179,-166.5 185,-172.5 185,-178.5 185,-178.5 185,-200.5 185,-200.5 185,-206.5 179,-212.5 173,-212.5 173,-212.5 134,-212.5 134,-212.5 128,-212.5 122,-206.5 122,-200.5 122,-200.5 122,-178.5 122,-178.5 122,-172.5 128,-166.5 134,-166.5"/>
<text text-anchor="middle" x="153.5" y="-197.3" font-family="Times New Roman,serif" font-size="14.00">5 (0101)</text>
<polyline fill="none" stroke="black" points="122,-189.5 185,-189.5 "/>
<text text-anchor="middle" x="153.5" y="-174.3" font-family="Times New Roman,serif" font-size="14.00">5, 5</text>
</g>
<!-- 4&#45;&gt;5 -->
<g id="edge5" class="edge">
<title>4&#45;&gt;5</title>
<path fill="none" stroke="black" d="M182.57,-249.37C178.38,-240.88 173.52,-231.04 168.98,-221.85"/>
<polygon fill="black" stroke="black" points="171.98,-220.02 164.42,-212.61 165.71,-223.12 171.98,-220.02"/>
</g>
<!-- 6 -->
<g id="node7" class="node">
<title>6</title>
<path fill="none" stroke="black" d="M215,-166.5C215,-166.5 254,-166.5 254,-166.5 260,-166.5 266,-172.5 266,-178.5 266,-178.5 266,-200.5 266,-200.5 266,-206.5 260,-212.5 254,-212.5 254,-212.5 215,-212.5 215,-212.5 209,-212.5 203,-206.5 203,-200.5 203,-200.5 203,-178.5 203,-178.5 203,-172.5 209,-166.5 215,-166.5"/>
<text text-anchor="middle" x="234.5" y="-197.3" font-family="Times New Roman,serif" font-size="14.00">6 (0110)</text>
<polyline fill="none" stroke="black" points="203,-189.5 266,-189.5 "/>
<text text-anchor="middle" x="234.5" y="-174.3" font-family="Times New Roman,serif" font-size="14.00">5, 6</text>
</g>
<!-- 4&#45;&gt;6 -->
<g id="edge6" class="edge">
<title>4&#45;&gt;6</title>
<path fill="none" stroke="black" d="M204.7,-249.37C209.04,-240.79 214.09,-230.83 218.78,-221.56"/>
<polygon fill="black" stroke="black" points="221.92,-223.11 223.31,-212.61 215.67,-219.95 221.92,-223.11"/>
</g>
<!-- 7 -->
<g id="node8" class="node">
<title>7</title>
<path fill="none" stroke="black" d="M215,-83.5C215,-83.5 254,-83.5 254,-83.5 260,-83.5 266,-89.5 266,-95.5 266,-95.5 266,-117.5 266,-117.5 266,-123.5 260,-129.5 254,-129.5 254,-129.5 215,-129.5 215,-129.5 209,-129.5 203,-123.5 203,-117.5 203,-117.5 203,-95.5 203,-95.5 203,-89.5 209,-83.5 215,-83.5"/>
<text text-anchor="middle" x="234.5" y="-114.3" font-family="Times New Roman,serif" font-size="14.00">7 (0111)</text>
<polyline fill="none" stroke="black" points="203,-106.5 266,-106.5 "/>
<text text-anchor="middle" x="234.5" y="-91.3" font-family="Times New Roman,serif" font-size="14.00">7, 7</text>
</g>
<!-- 6&#45;&gt;7 -->
<g id="edge7" class="edge">
<title>6&#45;&gt;7</title>
<path fill="none" stroke="black" d="M234.5,-166.37C234.5,-158.15 234.5,-148.66 234.5,-139.73"/>
<polygon fill="black" stroke="black" points="238,-139.61 234.5,-129.61 231,-139.61 238,-139.61"/>
</g>
<!-- 9 -->
<g id="node10" class="node">
<title>9</title>
<path fill="none" stroke="black" d="M296,-166.5C296,-166.5 335,-166.5 335,-166.5 341,-166.5 347,-172.5 347,-178.5 347,-178.5 347,-200.5 347,-200.5 347,-206.5 341,-212.5 335,-212.5 335,-212.5 296,-212.5 296,-212.5 290,-212.5 284,-206.5 284,-200.5 284,-200.5 284,-178.5 284,-178.5 284,-172.5 290,-166.5 296,-166.5"/>
<text text-anchor="middle" x="315.5" y="-197.3" font-family="Times New Roman,serif" font-size="14.00">9 (1001)</text>
<polyline fill="none" stroke="black" points="284,-189.5 347,-189.5 "/>
<text text-anchor="middle" x="315.5" y="-174.3" font-family="Times New Roman,serif" font-size="14.00">9, 9</text>
</g>
<!-- 8&#45;&gt;9 -->
<g id="edge9" class="edge">
<title>8&#45;&gt;9</title>
<path fill="none" stroke="black" d="M346.02,-249.37C341.58,-240.79 336.41,-230.83 331.61,-221.56"/>
<polygon fill="black" stroke="black" points="334.67,-219.87 326.96,-212.61 328.46,-223.1 334.67,-219.87"/>
</g>
<!-- 10 -->
<g id="node11" class="node">
<title>10</title>
<path fill="none" stroke="black" d="M377.5,-166.5C377.5,-166.5 423.5,-166.5 423.5,-166.5 429.5,-166.5 435.5,-172.5 435.5,-178.5 435.5,-178.5 435.5,-200.5 435.5,-200.5 435.5,-206.5 429.5,-212.5 423.5,-212.5 423.5,-212.5 377.5,-212.5 377.5,-212.5 371.5,-212.5 365.5,-206.5 365.5,-200.5 365.5,-200.5 365.5,-178.5 365.5,-178.5 365.5,-172.5 371.5,-166.5 377.5,-166.5"/>
<text text-anchor="middle" x="400.5" y="-197.3" font-family="Times New Roman,serif" font-size="14.00">10 (1010)</text>
<polyline fill="none" stroke="black" points="365.5,-189.5 435.5,-189.5 "/>
<text text-anchor="middle" x="400.5" y="-174.3" font-family="Times New Roman,serif" font-size="14.00">9, 10</text>
</g>
<!-- 8&#45;&gt;10 -->
<g id="edge10" class="edge">
<title>8&#45;&gt;10</title>
<path fill="none" stroke="black" d="M369.25,-249.37C373.8,-240.79 379.09,-230.83 384.01,-221.56"/>
<polygon fill="black" stroke="black" points="387.17,-223.08 388.76,-212.61 380.98,-219.8 387.17,-223.08"/>
</g>
<!-- 12 -->
<g id="node13" class="node">
<title>12</title>
<path fill="none" stroke="black" d="M465.5,-166.5C465.5,-166.5 511.5,-166.5 511.5,-166.5 517.5,-166.5 523.5,-172.5 523.5,-178.5 523.5,-178.5 523.5,-200.5 523.5,-200.5 523.5,-206.5 517.5,-212.5 511.5,-212.5 511.5,-212.5 465.5,-212.5 465.5,-212.5 459.5,-212.5 453.5,-206.5 453.5,-200.5 453.5,-200.5 453.5,-178.5 453.5,-178.5 453.5,-172.5 459.5,-166.5 465.5,-166.5"/>
<text text-anchor="middle" x="488.5" y="-197.3" font-family="Times New Roman,serif" font-size="14.00">12 (1100)</text>
<polyline fill="none" stroke="black" points="453.5,-189.5 523.5,-189.5 "/>
<text text-anchor="middle" x="488.5" y="-174.3" font-family="Times New Roman,serif" font-size="14.00">9, 12</text>
</g>
<!-- 8&#45;&gt;12 -->
<g id="edge12" class="edge">
<title>8&#45;&gt;12</title>
<path fill="none" stroke="black" d="M389.21,-251.89C405.87,-241.59 426.54,-228.81 444.71,-217.58"/>
<polygon fill="black" stroke="black" points="446.73,-220.44 453.39,-212.21 443.05,-214.49 446.73,-220.44"/>
</g>
<!-- 11 -->
<g id="node12" class="node">
<title>11</title>
<path fill="none" stroke="black" d="M377.5,-83.5C377.5,-83.5 423.5,-83.5 423.5,-83.5 429.5,-83.5 435.5,-89.5 435.5,-95.5 435.5,-95.5 435.5,-117.5 435.5,-117.5 435.5,-123.5 429.5,-129.5 423.5,-129.5 423.5,-129.5 377.5,-129.5 377.5,-129.5 371.5,-129.5 365.5,-123.5 365.5,-117.5 365.5,-117.5 365.5,-95.5 365.5,-95.5 365.5,-89.5 371.5,-83.5 377.5,-83.5"/>
<text text-anchor="middle" x="400.5" y="-114.3" font-family="Times New Roman,serif" font-size="14.00">11 (1011)</text>
<polyline fill="none" stroke="black" points="365.5,-106.5 435.5,-106.5 "/>
<text text-anchor="middle" x="400.5" y="-91.3" font-family="Times New Roman,serif" font-size="14.00">11, 11</text>
</g>
<!-- 10&#45;&gt;11 -->
<g id="edge11" class="edge">
<title>10&#45;&gt;11</title>
<path fill="none" stroke="black" d="M400.5,-166.37C400.5,-158.15 400.5,-148.66 400.5,-139.73"/>
<polygon fill="black" stroke="black" points="404,-139.61 400.5,-129.61 397,-139.61 404,-139.61"/>
</g>
<!-- 13 -->
<g id="node14" class="node">
<title>13</title>
<path fill="none" stroke="black" d="M465.5,-83.5C465.5,-83.5 511.5,-83.5 511.5,-83.5 517.5,-83.5 523.5,-89.5 523.5,-95.5 523.5,-95.5 523.5,-117.5 523.5,-117.5 523.5,-123.5 517.5,-129.5 511.5,-129.5 511.5,-129.5 465.5,-129.5 465.5,-129.5 459.5,-129.5 453.5,-123.5 453.5,-117.5 453.5,-117.5 453.5,-95.5 453.5,-95.5 453.5,-89.5 459.5,-83.5 465.5,-83.5"/>
<text text-anchor="middle" x="488.5" y="-114.3" font-family="Times New Roman,serif" font-size="14.00">13 (1101)</text>
<polyline fill="none" stroke="black" points="453.5,-106.5 523.5,-106.5 "/>
<text text-anchor="middle" x="488.5" y="-91.3" font-family="Times New Roman,serif" font-size="14.00">13, 13</text>
</g>
<!-- 12&#45;&gt;13 -->
<g id="edge13" class="edge">
<title>12&#45;&gt;13</title>
<path fill="none" stroke="black" d="M488.5,-166.37C488.5,-158.15 488.5,-148.66 488.5,-139.73"/>
<polygon fill="black" stroke="black" points="492,-139.61 488.5,-129.61 485,-139.61 492,-139.61"/>
</g>
<!-- 14 -->
<g id="node15" class="node">
<title>14</title>
<path fill="none" stroke="black" d="M553.5,-83.5C553.5,-83.5 599.5,-83.5 599.5,-83.5 605.5,-83.5 611.5,-89.5 611.5,-95.5 611.5,-95.5 611.5,-117.5 611.5,-117.5 611.5,-123.5 605.5,-129.5 599.5,-129.5 599.5,-129.5 553.5,-129.5 553.5,-129.5 547.5,-129.5 541.5,-123.5 541.5,-117.5 541.5,-117.5 541.5,-95.5 541.5,-95.5 541.5,-89.5 547.5,-83.5 553.5,-83.5"/>
<text text-anchor="middle" x="576.5" y="-114.3" font-family="Times New Roman,serif" font-size="14.00">14 (1110)</text>
<polyline fill="none" stroke="black" points="541.5,-106.5 611.5,-106.5 "/>
<text text-anchor="middle" x="576.5" y="-91.3" font-family="Times New Roman,serif" font-size="14.00">13, 14</text>
</g>
<!-- 12&#45;&gt;14 -->
<g id="edge14" class="edge">
<title>12&#45;&gt;14</title>
<path fill="none" stroke="black" d="M512.55,-166.37C522.54,-157.17 534.27,-146.37 544.94,-136.55"/>
<polygon fill="black" stroke="black" points="547.5,-138.95 552.48,-129.61 542.75,-133.8 547.5,-138.95"/>
</g>
<!-- 15 -->
<g id="node16" class="node">
<title>15</title>
<path fill="none" stroke="black" d="M553.5,-0.5C553.5,-0.5 599.5,-0.5 599.5,-0.5 605.5,-0.5 611.5,-6.5 611.5,-12.5 611.5,-12.5 611.5,-34.5 611.5,-34.5 611.5,-40.5 605.5,-46.5 599.5,-46.5 599.5,-46.5 553.5,-46.5 553.5,-46.5 547.5,-46.5 541.5,-40.5 541.5,-34.5 541.5,-34.5 541.5,-12.5 541.5,-12.5 541.5,-6.5 547.5,-0.5 553.5,-0.5"/>
<text text-anchor="middle" x="576.5" y="-31.3" font-family="Times New Roman,serif" font-size="14.00">15 (1111)</text>
<polyline fill="none" stroke="black" points="541.5,-23.5 611.5,-23.5 "/>
<text text-anchor="middle" x="576.5" y="-8.3" font-family="Times New Roman,serif" font-size="14.00">15, 15</text>
</g>
<!-- 14&#45;&gt;15 -->
<g id="edge15" class="edge">
<title>14&#45;&gt;15</title>
<path fill="none" stroke="black" d="M576.5,-83.37C576.5,-75.15 576.5,-65.66 576.5,-56.73"/>
<polygon fill="black" stroke="black" points="580,-56.61 576.5,-46.61 573,-56.61 580,-56.61"/>
</g>
</g>
</svg>
